<svg width="120" height="80" viewBox="0 0 120 80" xmlns="http://www.w3.org/2000/svg" aria-hidden="true">
  <defs>
    <linearGradient id="g" x1="0" x2="1">
      <stop offset="0%" stop-color="#e6c9a6"/>
      <stop offset="100%" stop-color="#b88b6a"/>
    </linearGradient>
  </defs>
  <g fill="none" stroke="url(#g)" stroke-linecap="round" stroke-linejoin="round" stroke-width="3">
    <path d="M30 40c-18-30 6-34 18-30 8 3 16 12 12 22-4 10-20 18-30 8z" fill="#fff" stroke="url(#g)"/>
    <path d="M90 40c18-30-6-34-18-30-8 3-16 12-12 22 4 10 20 18 30 8z" fill="#fff" stroke="url(#g)"/>
    <path d="M58 40c0 0 6-22 0-28" stroke="url(#g)"/>
    <path d="M62 40c0 0-6-22 0-28" stroke="url(#g)"/>
    <path d="M52 48c-6 6-16 10-24 8" stroke="url(#g)"/>
    <path d="M68 48c6 6 16 10 24 8" stroke="url(#g)"/>
  </g>
</svg>
